<mxfile host="app.diagrams.net" agent="Mozilla/5.0 (Windows NT 10.0; Win64; x64) AppleWebKit/537.36 (KHTML, like Gecko) Chrome/136.0.0.0 Safari/537.36" version="27.0.6">
  <diagram name="페이지-1" id="zDfLIeBpHApkDFXWpUh5">
    <mxGraphModel dx="3974" dy="2454" grid="0" gridSize="10" guides="1" tooltips="1" connect="1" arrows="1" fold="1" page="0" pageScale="1" pageWidth="827" pageHeight="1169" math="0" shadow="0">
      <root>
        <mxCell id="0" />
        <mxCell id="1" parent="0" />
        <mxCell id="IfUtFwwpCATrcM6f2Ggm-107" value="" style="rounded=0;whiteSpace=wrap;html=1;fontSize=30;" vertex="1" parent="1">
          <mxGeometry x="-35" y="1235" width="879" height="3491" as="geometry" />
        </mxCell>
        <mxCell id="IfUtFwwpCATrcM6f2Ggm-2" value="Save start time" style="whiteSpace=wrap;strokeWidth=2;fontSize=30;" vertex="1" parent="1">
          <mxGeometry x="344" y="124" width="169" height="54" as="geometry" />
        </mxCell>
        <mxCell id="IfUtFwwpCATrcM6f2Ggm-108" style="edgeStyle=none;curved=1;rounded=0;orthogonalLoop=1;jettySize=auto;html=1;exitX=1;exitY=0.5;exitDx=0;exitDy=0;fontSize=30;startSize=8;endSize=8;" edge="1" parent="1" source="IfUtFwwpCATrcM6f2Ggm-3">
          <mxGeometry relative="1" as="geometry">
            <mxPoint x="771" y="255" as="targetPoint" />
          </mxGeometry>
        </mxCell>
        <mxCell id="IfUtFwwpCATrcM6f2Ggm-3" value="Register SIGINT handler" style="whiteSpace=wrap;strokeWidth=2;fontSize=30;" vertex="1" parent="1">
          <mxGeometry x="314" y="228" width="228" height="54" as="geometry" />
        </mxCell>
        <mxCell id="IfUtFwwpCATrcM6f2Ggm-4" value="Initialize semaphore" style="whiteSpace=wrap;strokeWidth=2;fontSize=30;" vertex="1" parent="1">
          <mxGeometry x="326" y="332" width="206" height="54" as="geometry" />
        </mxCell>
        <mxCell id="IfUtFwwpCATrcM6f2Ggm-5" value="Save parent PID" style="whiteSpace=wrap;strokeWidth=2;fontSize=30;" vertex="1" parent="1">
          <mxGeometry x="342" y="436" width="173" height="54" as="geometry" />
        </mxCell>
        <mxCell id="IfUtFwwpCATrcM6f2Ggm-6" value="Get home directory" style="whiteSpace=wrap;strokeWidth=2;fontSize=30;" vertex="1" parent="1">
          <mxGeometry x="328" y="540" width="200" height="54" as="geometry" />
        </mxCell>
        <mxCell id="IfUtFwwpCATrcM6f2Ggm-7" value="Create logfile directory" style="whiteSpace=wrap;strokeWidth=2;fontSize=30;" vertex="1" parent="1">
          <mxGeometry x="314" y="644" width="228" height="54" as="geometry" />
        </mxCell>
        <mxCell id="IfUtFwwpCATrcM6f2Ggm-8" value="Create server socket" style="whiteSpace=wrap;strokeWidth=2;fontSize=30;" vertex="1" parent="1">
          <mxGeometry x="324" y="748" width="208" height="54" as="geometry" />
        </mxCell>
        <mxCell id="IfUtFwwpCATrcM6f2Ggm-9" value="Set server address" style="whiteSpace=wrap;strokeWidth=2;fontSize=30;" vertex="1" parent="1">
          <mxGeometry x="333" y="852" width="191" height="54" as="geometry" />
        </mxCell>
        <mxCell id="IfUtFwwpCATrcM6f2Ggm-10" value="Bind socket to IP and PORT" style="whiteSpace=wrap;strokeWidth=2;fontSize=30;" vertex="1" parent="1">
          <mxGeometry x="302" y="956" width="253" height="54" as="geometry" />
        </mxCell>
        <mxCell id="IfUtFwwpCATrcM6f2Ggm-11" value="Listen for client connections" style="whiteSpace=wrap;strokeWidth=2;fontSize=30;" vertex="1" parent="1">
          <mxGeometry x="298" y="1060" width="260" height="78" as="geometry" />
        </mxCell>
        <mxCell id="IfUtFwwpCATrcM6f2Ggm-13" value="Accept client connection" style="whiteSpace=wrap;strokeWidth=2;fontSize=30;" vertex="1" parent="1">
          <mxGeometry x="309" y="1292" width="239" height="54" as="geometry" />
        </mxCell>
        <mxCell id="IfUtFwwpCATrcM6f2Ggm-14" value="Fork child process" style="whiteSpace=wrap;strokeWidth=2;fontSize=30;" vertex="1" parent="1">
          <mxGeometry x="334" y="1396" width="189" height="54" as="geometry" />
        </mxCell>
        <mxCell id="IfUtFwwpCATrcM6f2Ggm-15" value="Close server socket in child" style="whiteSpace=wrap;strokeWidth=2;fontSize=30;" vertex="1" parent="1">
          <mxGeometry x="158" y="1523" width="256" height="54" as="geometry" />
        </mxCell>
        <mxCell id="IfUtFwwpCATrcM6f2Ggm-16" value="Save child start time" style="whiteSpace=wrap;strokeWidth=2;fontSize=30;" vertex="1" parent="1">
          <mxGeometry x="182" y="1639" width="209" height="54" as="geometry" />
        </mxCell>
        <mxCell id="IfUtFwwpCATrcM6f2Ggm-17" value="Receive HTTP request" style="whiteSpace=wrap;strokeWidth=2;fontSize=30;" vertex="1" parent="1">
          <mxGeometry x="178" y="1755" width="217" height="54" as="geometry" />
        </mxCell>
        <mxCell id="IfUtFwwpCATrcM6f2Ggm-18" value="Save current time" style="whiteSpace=wrap;strokeWidth=2;fontSize=30;" vertex="1" parent="1">
          <mxGeometry x="192" y="1859" width="188" height="54" as="geometry" />
        </mxCell>
        <mxCell id="IfUtFwwpCATrcM6f2Ggm-19" value="Check if GET and valid URL" style="whiteSpace=wrap;strokeWidth=2;fontSize=30;" vertex="1" parent="1">
          <mxGeometry x="159" y="1963" width="254" height="54" as="geometry" />
        </mxCell>
        <mxCell id="IfUtFwwpCATrcM6f2Ggm-20" value="Perform SHA1 hash" style="whiteSpace=wrap;strokeWidth=2;fontSize=30;" vertex="1" parent="1">
          <mxGeometry x="189" y="2067" width="195" height="54" as="geometry" />
        </mxCell>
        <mxCell id="IfUtFwwpCATrcM6f2Ggm-21" value="Make cache directory and subdirectory" style="whiteSpace=wrap;strokeWidth=2;fontSize=30;" vertex="1" parent="1">
          <mxGeometry x="156" y="2171" width="260" height="78" as="geometry" />
        </mxCell>
        <mxCell id="IfUtFwwpCATrcM6f2Ggm-22" value="Search for cache file" style="whiteSpace=wrap;strokeWidth=2;fontSize=30;" vertex="1" parent="1">
          <mxGeometry x="182" y="2299" width="209" height="54" as="geometry" />
        </mxCell>
        <mxCell id="IfUtFwwpCATrcM6f2Ggm-23" value="Move to logfile directory" style="whiteSpace=wrap;strokeWidth=2;fontSize=30;" vertex="1" parent="1">
          <mxGeometry x="168" y="2403" width="237" height="54" as="geometry" />
        </mxCell>
        <mxCell id="IfUtFwwpCATrcM6f2Ggm-24" value="Open logfile txt" style="whiteSpace=wrap;strokeWidth=2;fontSize=30;" vertex="1" parent="1">
          <mxGeometry x="200" y="2507" width="173" height="54" as="geometry" />
        </mxCell>
        <mxCell id="IfUtFwwpCATrcM6f2Ggm-25" value="Cache HIT" style="rhombus;strokeWidth=2;whiteSpace=wrap;fontSize=30;" vertex="1" parent="1">
          <mxGeometry x="223" y="2611" width="126" height="126" as="geometry" />
        </mxCell>
        <mxCell id="IfUtFwwpCATrcM6f2Ggm-26" value="Is manual URL" style="rhombus;strokeWidth=2;whiteSpace=wrap;fontSize=30;" vertex="1" parent="1">
          <mxGeometry x="63" y="3662" width="155" height="155" as="geometry" />
        </mxCell>
        <mxCell id="IfUtFwwpCATrcM6f2Ggm-27" value="Semaphore wait for HIT" style="whiteSpace=wrap;strokeWidth=2;fontSize=30;" vertex="1" parent="1">
          <mxGeometry x="25" y="3890" width="230" height="54" as="geometry" />
        </mxCell>
        <mxCell id="IfUtFwwpCATrcM6f2Ggm-28" value="Sleep for simulation" style="whiteSpace=wrap;strokeWidth=2;fontSize=30;" vertex="1" parent="1">
          <mxGeometry x="38" y="3994" width="204" height="54" as="geometry" />
        </mxCell>
        <mxCell id="IfUtFwwpCATrcM6f2Ggm-29" value="Write HIT to log" style="whiteSpace=wrap;strokeWidth=2;fontSize=30;" vertex="1" parent="1">
          <mxGeometry x="54" y="4110" width="173" height="54" as="geometry" />
        </mxCell>
        <mxCell id="IfUtFwwpCATrcM6f2Ggm-30" value="Semaphore post" style="whiteSpace=wrap;strokeWidth=2;fontSize=30;" vertex="1" parent="1">
          <mxGeometry x="53" y="4226" width="174" height="54" as="geometry" />
        </mxCell>
        <mxCell id="IfUtFwwpCATrcM6f2Ggm-31" value="Open and read cache file" style="whiteSpace=wrap;strokeWidth=2;fontSize=30;" vertex="1" parent="1">
          <mxGeometry x="20" y="4330" width="240" height="54" as="geometry" />
        </mxCell>
        <mxCell id="IfUtFwwpCATrcM6f2Ggm-32" value="Send data to browser" style="whiteSpace=wrap;strokeWidth=2;fontSize=30;" vertex="1" parent="1">
          <mxGeometry x="34" y="4434" width="213" height="54" as="geometry" />
        </mxCell>
        <mxCell id="IfUtFwwpCATrcM6f2Ggm-33" value="Is manual URL" style="rhombus;strokeWidth=2;whiteSpace=wrap;fontSize=30;" vertex="1" parent="1">
          <mxGeometry x="355" y="2810" width="155" height="155" as="geometry" />
        </mxCell>
        <mxCell id="IfUtFwwpCATrcM6f2Ggm-34" value="Semaphore wait for MISS" style="whiteSpace=wrap;strokeWidth=2;fontSize=30;" vertex="1" parent="1">
          <mxGeometry x="314" y="3038" width="237" height="54" as="geometry" />
        </mxCell>
        <mxCell id="IfUtFwwpCATrcM6f2Ggm-35" value="Sleep for simulation" style="whiteSpace=wrap;strokeWidth=2;fontSize=30;" vertex="1" parent="1">
          <mxGeometry x="330" y="3142" width="204" height="54" as="geometry" />
        </mxCell>
        <mxCell id="IfUtFwwpCATrcM6f2Ggm-36" value="Write MISS to log" style="whiteSpace=wrap;strokeWidth=2;fontSize=30;" vertex="1" parent="1">
          <mxGeometry x="342" y="3246" width="181" height="54" as="geometry" />
        </mxCell>
        <mxCell id="IfUtFwwpCATrcM6f2Ggm-37" value="Semaphore post" style="whiteSpace=wrap;strokeWidth=2;fontSize=30;" vertex="1" parent="1">
          <mxGeometry x="345" y="3350" width="174" height="54" as="geometry" />
        </mxCell>
        <mxCell id="IfUtFwwpCATrcM6f2Ggm-38" value="Parse host port path" style="whiteSpace=wrap;strokeWidth=2;fontSize=30;" vertex="1" parent="1">
          <mxGeometry x="330" y="3454" width="205" height="54" as="geometry" />
        </mxCell>
        <mxCell id="IfUtFwwpCATrcM6f2Ggm-39" value="Get origin server IP" style="whiteSpace=wrap;strokeWidth=2;fontSize=30;" vertex="1" parent="1">
          <mxGeometry x="333" y="3558" width="199" height="54" as="geometry" />
        </mxCell>
        <mxCell id="IfUtFwwpCATrcM6f2Ggm-40" value="Create origin socket" style="whiteSpace=wrap;strokeWidth=2;fontSize=30;" vertex="1" parent="1">
          <mxGeometry x="330" y="3712" width="204" height="54" as="geometry" />
        </mxCell>
        <mxCell id="IfUtFwwpCATrcM6f2Ggm-41" value="Make HTTP10 request line" style="whiteSpace=wrap;strokeWidth=2;fontSize=30;" vertex="1" parent="1">
          <mxGeometry x="309" y="3890" width="247" height="54" as="geometry" />
        </mxCell>
        <mxCell id="IfUtFwwpCATrcM6f2Ggm-42" value="Refine request headers" style="whiteSpace=wrap;strokeWidth=2;fontSize=30;" vertex="1" parent="1">
          <mxGeometry x="319" y="3994" width="225" height="54" as="geometry" />
        </mxCell>
        <mxCell id="IfUtFwwpCATrcM6f2Ggm-43" value="Send request to origin server" style="whiteSpace=wrap;strokeWidth=2;fontSize=30;" vertex="1" parent="1">
          <mxGeometry x="302" y="4098" width="260" height="78" as="geometry" />
        </mxCell>
        <mxCell id="IfUtFwwpCATrcM6f2Ggm-44" value="Receive response" style="whiteSpace=wrap;strokeWidth=2;fontSize=30;" vertex="1" parent="1">
          <mxGeometry x="341" y="4226" width="183" height="54" as="geometry" />
        </mxCell>
        <mxCell id="IfUtFwwpCATrcM6f2Ggm-45" value="Send response to browser" style="whiteSpace=wrap;strokeWidth=2;fontSize=30;" vertex="1" parent="1">
          <mxGeometry x="310" y="4330" width="243" height="54" as="geometry" />
        </mxCell>
        <mxCell id="IfUtFwwpCATrcM6f2Ggm-46" value="Save response to cache file" style="whiteSpace=wrap;strokeWidth=2;fontSize=30;" vertex="1" parent="1">
          <mxGeometry x="304" y="4434" width="255" height="54" as="geometry" />
        </mxCell>
        <mxCell id="IfUtFwwpCATrcM6f2Ggm-47" value="Close client socket" style="whiteSpace=wrap;strokeWidth=2;fontSize=30;" vertex="1" parent="1">
          <mxGeometry x="43" y="4538" width="195" height="54" as="geometry" />
        </mxCell>
        <mxCell id="IfUtFwwpCATrcM6f2Ggm-48" value="Close client socket" style="whiteSpace=wrap;strokeWidth=2;fontSize=30;" vertex="1" parent="1">
          <mxGeometry x="335" y="4538" width="195" height="54" as="geometry" />
        </mxCell>
        <mxCell id="IfUtFwwpCATrcM6f2Ggm-49" value="Child exit" style="whiteSpace=wrap;strokeWidth=2;fontSize=30;" vertex="1" parent="1">
          <mxGeometry x="222" y="4642" width="129" height="54" as="geometry" />
        </mxCell>
        <mxCell id="IfUtFwwpCATrcM6f2Ggm-50" value="Increase child count" style="whiteSpace=wrap;strokeWidth=2;fontSize=30;" vertex="1" parent="1">
          <mxGeometry x="468" y="1523" width="205" height="54" as="geometry" />
        </mxCell>
        <mxCell id="IfUtFwwpCATrcM6f2Ggm-51" value="Close client socket in parent" style="whiteSpace=wrap;strokeWidth=2;fontSize=30;" vertex="1" parent="1">
          <mxGeometry x="441" y="1627" width="260" height="78" as="geometry" />
        </mxCell>
        <mxCell id="IfUtFwwpCATrcM6f2Ggm-52" value="waitpid for zombie" style="whiteSpace=wrap;strokeWidth=2;fontSize=30;" vertex="1" parent="1">
          <mxGeometry x="473" y="1755" width="196" height="54" as="geometry" />
        </mxCell>
        <mxCell id="IfUtFwwpCATrcM6f2Ggm-53" value="" style="curved=1;startArrow=none;endArrow=block;exitX=0.5;exitY=1;entryX=0.5;entryY=0;rounded=0;fontSize=30;startSize=8;endSize=8;" edge="1" parent="1" target="IfUtFwwpCATrcM6f2Ggm-2">
          <mxGeometry relative="1" as="geometry">
            <Array as="points" />
            <mxPoint x="428.5" y="74" as="sourcePoint" />
          </mxGeometry>
        </mxCell>
        <mxCell id="IfUtFwwpCATrcM6f2Ggm-54" value="" style="curved=1;startArrow=none;endArrow=block;exitX=0.5;exitY=1;entryX=0.5;entryY=0;rounded=0;fontSize=30;startSize=8;endSize=8;" edge="1" parent="1" source="IfUtFwwpCATrcM6f2Ggm-2" target="IfUtFwwpCATrcM6f2Ggm-3">
          <mxGeometry relative="1" as="geometry">
            <Array as="points" />
          </mxGeometry>
        </mxCell>
        <mxCell id="IfUtFwwpCATrcM6f2Ggm-55" value="" style="curved=1;startArrow=none;endArrow=block;exitX=0.5;exitY=1;entryX=0.5;entryY=0;rounded=0;fontSize=30;startSize=8;endSize=8;" edge="1" parent="1" source="IfUtFwwpCATrcM6f2Ggm-3" target="IfUtFwwpCATrcM6f2Ggm-4">
          <mxGeometry relative="1" as="geometry">
            <Array as="points" />
          </mxGeometry>
        </mxCell>
        <mxCell id="IfUtFwwpCATrcM6f2Ggm-56" value="" style="curved=1;startArrow=none;endArrow=block;exitX=0.5;exitY=1;entryX=0.5;entryY=0;rounded=0;fontSize=30;startSize=8;endSize=8;" edge="1" parent="1" source="IfUtFwwpCATrcM6f2Ggm-4" target="IfUtFwwpCATrcM6f2Ggm-5">
          <mxGeometry relative="1" as="geometry">
            <Array as="points" />
          </mxGeometry>
        </mxCell>
        <mxCell id="IfUtFwwpCATrcM6f2Ggm-57" value="" style="curved=1;startArrow=none;endArrow=block;exitX=0.5;exitY=1;entryX=0.5;entryY=0;rounded=0;fontSize=30;startSize=8;endSize=8;" edge="1" parent="1" source="IfUtFwwpCATrcM6f2Ggm-5" target="IfUtFwwpCATrcM6f2Ggm-6">
          <mxGeometry relative="1" as="geometry">
            <Array as="points" />
          </mxGeometry>
        </mxCell>
        <mxCell id="IfUtFwwpCATrcM6f2Ggm-58" value="" style="curved=1;startArrow=none;endArrow=block;exitX=0.5;exitY=1;entryX=0.5;entryY=0;rounded=0;fontSize=30;startSize=8;endSize=8;" edge="1" parent="1" source="IfUtFwwpCATrcM6f2Ggm-6" target="IfUtFwwpCATrcM6f2Ggm-7">
          <mxGeometry relative="1" as="geometry">
            <Array as="points" />
          </mxGeometry>
        </mxCell>
        <mxCell id="IfUtFwwpCATrcM6f2Ggm-59" value="" style="curved=1;startArrow=none;endArrow=block;exitX=0.5;exitY=1;entryX=0.5;entryY=0;rounded=0;fontSize=30;startSize=8;endSize=8;" edge="1" parent="1" source="IfUtFwwpCATrcM6f2Ggm-7" target="IfUtFwwpCATrcM6f2Ggm-8">
          <mxGeometry relative="1" as="geometry">
            <Array as="points" />
          </mxGeometry>
        </mxCell>
        <mxCell id="IfUtFwwpCATrcM6f2Ggm-60" value="" style="curved=1;startArrow=none;endArrow=block;exitX=0.5;exitY=1;entryX=0.5;entryY=0;rounded=0;fontSize=30;startSize=8;endSize=8;" edge="1" parent="1" source="IfUtFwwpCATrcM6f2Ggm-8" target="IfUtFwwpCATrcM6f2Ggm-9">
          <mxGeometry relative="1" as="geometry">
            <Array as="points" />
          </mxGeometry>
        </mxCell>
        <mxCell id="IfUtFwwpCATrcM6f2Ggm-61" value="" style="curved=1;startArrow=none;endArrow=block;exitX=0.5;exitY=1;entryX=0.5;entryY=0;rounded=0;fontSize=30;startSize=8;endSize=8;" edge="1" parent="1" source="IfUtFwwpCATrcM6f2Ggm-9" target="IfUtFwwpCATrcM6f2Ggm-10">
          <mxGeometry relative="1" as="geometry">
            <Array as="points" />
          </mxGeometry>
        </mxCell>
        <mxCell id="IfUtFwwpCATrcM6f2Ggm-62" value="" style="curved=1;startArrow=none;endArrow=block;exitX=0.5;exitY=1;entryX=0.5;entryY=0;rounded=0;fontSize=30;startSize=8;endSize=8;" edge="1" parent="1" source="IfUtFwwpCATrcM6f2Ggm-10" target="IfUtFwwpCATrcM6f2Ggm-11">
          <mxGeometry relative="1" as="geometry">
            <Array as="points" />
          </mxGeometry>
        </mxCell>
        <mxCell id="IfUtFwwpCATrcM6f2Ggm-63" value="" style="curved=1;startArrow=none;endArrow=block;exitX=0.5;exitY=1;entryX=0.5;entryY=0;rounded=0;fontSize=30;startSize=8;endSize=8;" edge="1" parent="1" source="IfUtFwwpCATrcM6f2Ggm-11">
          <mxGeometry relative="1" as="geometry">
            <Array as="points" />
            <mxPoint x="428.00000000000045" y="1187.9999999999995" as="targetPoint" />
          </mxGeometry>
        </mxCell>
        <mxCell id="IfUtFwwpCATrcM6f2Ggm-64" value="" style="curved=1;startArrow=none;endArrow=block;exitX=0.5;exitY=1;entryX=0.5;entryY=0;rounded=0;fontSize=30;startSize=8;endSize=8;" edge="1" parent="1" target="IfUtFwwpCATrcM6f2Ggm-13">
          <mxGeometry relative="1" as="geometry">
            <Array as="points" />
            <mxPoint x="428.00000000000045" y="1242" as="sourcePoint" />
          </mxGeometry>
        </mxCell>
        <mxCell id="IfUtFwwpCATrcM6f2Ggm-65" value="" style="curved=1;startArrow=none;endArrow=block;exitX=0.5;exitY=1;entryX=0.5;entryY=0;rounded=0;fontSize=30;startSize=8;endSize=8;" edge="1" parent="1" source="IfUtFwwpCATrcM6f2Ggm-13" target="IfUtFwwpCATrcM6f2Ggm-14">
          <mxGeometry relative="1" as="geometry">
            <Array as="points" />
          </mxGeometry>
        </mxCell>
        <mxCell id="IfUtFwwpCATrcM6f2Ggm-66" value="Child" style="curved=1;startArrow=none;endArrow=block;exitX=0.18;exitY=1;entryX=0.5;entryY=0;rounded=0;fontSize=30;startSize=8;endSize=8;" edge="1" parent="1" source="IfUtFwwpCATrcM6f2Ggm-14" target="IfUtFwwpCATrcM6f2Ggm-15">
          <mxGeometry relative="1" as="geometry">
            <Array as="points">
              <mxPoint x="286" y="1486" />
            </Array>
          </mxGeometry>
        </mxCell>
        <mxCell id="IfUtFwwpCATrcM6f2Ggm-67" value="" style="curved=1;startArrow=none;endArrow=block;exitX=0.5;exitY=1;entryX=0.5;entryY=0;rounded=0;fontSize=30;startSize=8;endSize=8;" edge="1" parent="1" source="IfUtFwwpCATrcM6f2Ggm-15" target="IfUtFwwpCATrcM6f2Ggm-16">
          <mxGeometry relative="1" as="geometry">
            <Array as="points" />
          </mxGeometry>
        </mxCell>
        <mxCell id="IfUtFwwpCATrcM6f2Ggm-68" value="" style="curved=1;startArrow=none;endArrow=block;exitX=0.5;exitY=1;entryX=0.5;entryY=0;rounded=0;fontSize=30;startSize=8;endSize=8;" edge="1" parent="1" source="IfUtFwwpCATrcM6f2Ggm-16" target="IfUtFwwpCATrcM6f2Ggm-17">
          <mxGeometry relative="1" as="geometry">
            <Array as="points" />
          </mxGeometry>
        </mxCell>
        <mxCell id="IfUtFwwpCATrcM6f2Ggm-69" value="" style="curved=1;startArrow=none;endArrow=block;exitX=0.5;exitY=1;entryX=0.5;entryY=0;rounded=0;fontSize=30;startSize=8;endSize=8;" edge="1" parent="1" source="IfUtFwwpCATrcM6f2Ggm-17" target="IfUtFwwpCATrcM6f2Ggm-18">
          <mxGeometry relative="1" as="geometry">
            <Array as="points" />
          </mxGeometry>
        </mxCell>
        <mxCell id="IfUtFwwpCATrcM6f2Ggm-70" value="" style="curved=1;startArrow=none;endArrow=block;exitX=0.5;exitY=1;entryX=0.5;entryY=0;rounded=0;fontSize=30;startSize=8;endSize=8;" edge="1" parent="1" source="IfUtFwwpCATrcM6f2Ggm-18" target="IfUtFwwpCATrcM6f2Ggm-19">
          <mxGeometry relative="1" as="geometry">
            <Array as="points" />
          </mxGeometry>
        </mxCell>
        <mxCell id="IfUtFwwpCATrcM6f2Ggm-71" value="" style="curved=1;startArrow=none;endArrow=block;exitX=0.5;exitY=1;entryX=0.5;entryY=0;rounded=0;fontSize=30;startSize=8;endSize=8;" edge="1" parent="1" source="IfUtFwwpCATrcM6f2Ggm-19" target="IfUtFwwpCATrcM6f2Ggm-20">
          <mxGeometry relative="1" as="geometry">
            <Array as="points" />
          </mxGeometry>
        </mxCell>
        <mxCell id="IfUtFwwpCATrcM6f2Ggm-72" value="" style="curved=1;startArrow=none;endArrow=block;exitX=0.5;exitY=1;entryX=0.5;entryY=0;rounded=0;fontSize=30;startSize=8;endSize=8;" edge="1" parent="1" source="IfUtFwwpCATrcM6f2Ggm-20" target="IfUtFwwpCATrcM6f2Ggm-21">
          <mxGeometry relative="1" as="geometry">
            <Array as="points" />
          </mxGeometry>
        </mxCell>
        <mxCell id="IfUtFwwpCATrcM6f2Ggm-73" value="" style="curved=1;startArrow=none;endArrow=block;exitX=0.5;exitY=1;entryX=0.5;entryY=0;rounded=0;fontSize=30;startSize=8;endSize=8;" edge="1" parent="1" source="IfUtFwwpCATrcM6f2Ggm-21" target="IfUtFwwpCATrcM6f2Ggm-22">
          <mxGeometry relative="1" as="geometry">
            <Array as="points" />
          </mxGeometry>
        </mxCell>
        <mxCell id="IfUtFwwpCATrcM6f2Ggm-74" value="" style="curved=1;startArrow=none;endArrow=block;exitX=0.5;exitY=1;entryX=0.5;entryY=0;rounded=0;fontSize=30;startSize=8;endSize=8;" edge="1" parent="1" source="IfUtFwwpCATrcM6f2Ggm-22" target="IfUtFwwpCATrcM6f2Ggm-23">
          <mxGeometry relative="1" as="geometry">
            <Array as="points" />
          </mxGeometry>
        </mxCell>
        <mxCell id="IfUtFwwpCATrcM6f2Ggm-75" value="" style="curved=1;startArrow=none;endArrow=block;exitX=0.5;exitY=1;entryX=0.5;entryY=0;rounded=0;fontSize=30;startSize=8;endSize=8;" edge="1" parent="1" source="IfUtFwwpCATrcM6f2Ggm-23" target="IfUtFwwpCATrcM6f2Ggm-24">
          <mxGeometry relative="1" as="geometry">
            <Array as="points" />
          </mxGeometry>
        </mxCell>
        <mxCell id="IfUtFwwpCATrcM6f2Ggm-76" value="" style="curved=1;startArrow=none;endArrow=block;exitX=0.5;exitY=1;entryX=0.5;entryY=0;rounded=0;fontSize=30;startSize=8;endSize=8;" edge="1" parent="1" source="IfUtFwwpCATrcM6f2Ggm-24" target="IfUtFwwpCATrcM6f2Ggm-25">
          <mxGeometry relative="1" as="geometry">
            <Array as="points" />
          </mxGeometry>
        </mxCell>
        <mxCell id="IfUtFwwpCATrcM6f2Ggm-77" value="yes" style="curved=1;startArrow=none;endArrow=block;exitX=0;exitY=0.84;entryX=0.5;entryY=0;rounded=0;fontSize=30;startSize=8;endSize=8;" edge="1" parent="1" source="IfUtFwwpCATrcM6f2Ggm-25" target="IfUtFwwpCATrcM6f2Ggm-26">
          <mxGeometry relative="1" as="geometry">
            <Array as="points">
              <mxPoint x="140" y="2774" />
            </Array>
          </mxGeometry>
        </mxCell>
        <mxCell id="IfUtFwwpCATrcM6f2Ggm-78" value="yes" style="curved=1;startArrow=none;endArrow=block;exitX=0.5;exitY=1;entryX=0.5;entryY=0;rounded=0;fontSize=30;startSize=8;endSize=8;" edge="1" parent="1" source="IfUtFwwpCATrcM6f2Ggm-26" target="IfUtFwwpCATrcM6f2Ggm-27">
          <mxGeometry relative="1" as="geometry">
            <Array as="points" />
          </mxGeometry>
        </mxCell>
        <mxCell id="IfUtFwwpCATrcM6f2Ggm-79" value="" style="curved=1;startArrow=none;endArrow=block;exitX=0.5;exitY=1;entryX=0.5;entryY=0;rounded=0;fontSize=30;startSize=8;endSize=8;" edge="1" parent="1" source="IfUtFwwpCATrcM6f2Ggm-27" target="IfUtFwwpCATrcM6f2Ggm-28">
          <mxGeometry relative="1" as="geometry">
            <Array as="points" />
          </mxGeometry>
        </mxCell>
        <mxCell id="IfUtFwwpCATrcM6f2Ggm-80" value="" style="curved=1;startArrow=none;endArrow=block;exitX=0.5;exitY=1;entryX=0.5;entryY=0;rounded=0;fontSize=30;startSize=8;endSize=8;" edge="1" parent="1" source="IfUtFwwpCATrcM6f2Ggm-28" target="IfUtFwwpCATrcM6f2Ggm-29">
          <mxGeometry relative="1" as="geometry">
            <Array as="points" />
          </mxGeometry>
        </mxCell>
        <mxCell id="IfUtFwwpCATrcM6f2Ggm-81" value="" style="curved=1;startArrow=none;endArrow=block;exitX=0.5;exitY=1;entryX=0.5;entryY=0;rounded=0;fontSize=30;startSize=8;endSize=8;" edge="1" parent="1" source="IfUtFwwpCATrcM6f2Ggm-29" target="IfUtFwwpCATrcM6f2Ggm-30">
          <mxGeometry relative="1" as="geometry">
            <Array as="points" />
          </mxGeometry>
        </mxCell>
        <mxCell id="IfUtFwwpCATrcM6f2Ggm-82" value="" style="curved=1;startArrow=none;endArrow=block;exitX=0.5;exitY=1;entryX=0.5;entryY=0;rounded=0;fontSize=30;startSize=8;endSize=8;" edge="1" parent="1" source="IfUtFwwpCATrcM6f2Ggm-30" target="IfUtFwwpCATrcM6f2Ggm-31">
          <mxGeometry relative="1" as="geometry">
            <Array as="points" />
          </mxGeometry>
        </mxCell>
        <mxCell id="IfUtFwwpCATrcM6f2Ggm-83" value="" style="curved=1;startArrow=none;endArrow=block;exitX=0.5;exitY=1;entryX=0.5;entryY=0;rounded=0;fontSize=30;startSize=8;endSize=8;" edge="1" parent="1" source="IfUtFwwpCATrcM6f2Ggm-31" target="IfUtFwwpCATrcM6f2Ggm-32">
          <mxGeometry relative="1" as="geometry">
            <Array as="points" />
          </mxGeometry>
        </mxCell>
        <mxCell id="IfUtFwwpCATrcM6f2Ggm-84" value="no" style="curved=1;startArrow=none;endArrow=block;exitX=1;exitY=0.84;entryX=0.5;entryY=0;rounded=0;fontSize=30;startSize=8;endSize=8;" edge="1" parent="1" source="IfUtFwwpCATrcM6f2Ggm-25" target="IfUtFwwpCATrcM6f2Ggm-33">
          <mxGeometry relative="1" as="geometry">
            <Array as="points">
              <mxPoint x="432" y="2774" />
            </Array>
          </mxGeometry>
        </mxCell>
        <mxCell id="IfUtFwwpCATrcM6f2Ggm-85" value="yes" style="curved=1;startArrow=none;endArrow=block;exitX=0.5;exitY=1;entryX=0.5;entryY=0;rounded=0;fontSize=30;startSize=8;endSize=8;" edge="1" parent="1" source="IfUtFwwpCATrcM6f2Ggm-33" target="IfUtFwwpCATrcM6f2Ggm-34">
          <mxGeometry relative="1" as="geometry">
            <Array as="points" />
          </mxGeometry>
        </mxCell>
        <mxCell id="IfUtFwwpCATrcM6f2Ggm-86" value="" style="curved=1;startArrow=none;endArrow=block;exitX=0.5;exitY=1;entryX=0.5;entryY=0;rounded=0;fontSize=30;startSize=8;endSize=8;" edge="1" parent="1" source="IfUtFwwpCATrcM6f2Ggm-34" target="IfUtFwwpCATrcM6f2Ggm-35">
          <mxGeometry relative="1" as="geometry">
            <Array as="points" />
          </mxGeometry>
        </mxCell>
        <mxCell id="IfUtFwwpCATrcM6f2Ggm-87" value="" style="curved=1;startArrow=none;endArrow=block;exitX=0.5;exitY=1;entryX=0.5;entryY=0;rounded=0;fontSize=30;startSize=8;endSize=8;" edge="1" parent="1" source="IfUtFwwpCATrcM6f2Ggm-35" target="IfUtFwwpCATrcM6f2Ggm-36">
          <mxGeometry relative="1" as="geometry">
            <Array as="points" />
          </mxGeometry>
        </mxCell>
        <mxCell id="IfUtFwwpCATrcM6f2Ggm-88" value="" style="curved=1;startArrow=none;endArrow=block;exitX=0.5;exitY=1;entryX=0.5;entryY=0;rounded=0;fontSize=30;startSize=8;endSize=8;" edge="1" parent="1" source="IfUtFwwpCATrcM6f2Ggm-36" target="IfUtFwwpCATrcM6f2Ggm-37">
          <mxGeometry relative="1" as="geometry">
            <Array as="points" />
          </mxGeometry>
        </mxCell>
        <mxCell id="IfUtFwwpCATrcM6f2Ggm-89" value="" style="curved=1;startArrow=none;endArrow=block;exitX=0.5;exitY=1;entryX=0.5;entryY=0;rounded=0;fontSize=30;startSize=8;endSize=8;" edge="1" parent="1" source="IfUtFwwpCATrcM6f2Ggm-37" target="IfUtFwwpCATrcM6f2Ggm-38">
          <mxGeometry relative="1" as="geometry">
            <Array as="points" />
          </mxGeometry>
        </mxCell>
        <mxCell id="IfUtFwwpCATrcM6f2Ggm-90" value="" style="curved=1;startArrow=none;endArrow=block;exitX=0.5;exitY=1;entryX=0.5;entryY=0;rounded=0;fontSize=30;startSize=8;endSize=8;" edge="1" parent="1" source="IfUtFwwpCATrcM6f2Ggm-38" target="IfUtFwwpCATrcM6f2Ggm-39">
          <mxGeometry relative="1" as="geometry">
            <Array as="points" />
          </mxGeometry>
        </mxCell>
        <mxCell id="IfUtFwwpCATrcM6f2Ggm-91" value="" style="curved=1;startArrow=none;endArrow=block;exitX=0.5;exitY=1;entryX=0.5;entryY=0.01;rounded=0;fontSize=30;startSize=8;endSize=8;" edge="1" parent="1" source="IfUtFwwpCATrcM6f2Ggm-39" target="IfUtFwwpCATrcM6f2Ggm-40">
          <mxGeometry relative="1" as="geometry">
            <Array as="points" />
          </mxGeometry>
        </mxCell>
        <mxCell id="IfUtFwwpCATrcM6f2Ggm-92" value="" style="curved=1;startArrow=none;endArrow=block;exitX=0.5;exitY=1.01;entryX=0.5;entryY=0;rounded=0;fontSize=30;startSize=8;endSize=8;" edge="1" parent="1" source="IfUtFwwpCATrcM6f2Ggm-40" target="IfUtFwwpCATrcM6f2Ggm-41">
          <mxGeometry relative="1" as="geometry">
            <Array as="points" />
          </mxGeometry>
        </mxCell>
        <mxCell id="IfUtFwwpCATrcM6f2Ggm-93" value="" style="curved=1;startArrow=none;endArrow=block;exitX=0.5;exitY=1;entryX=0.5;entryY=0;rounded=0;fontSize=30;startSize=8;endSize=8;" edge="1" parent="1" source="IfUtFwwpCATrcM6f2Ggm-41" target="IfUtFwwpCATrcM6f2Ggm-42">
          <mxGeometry relative="1" as="geometry">
            <Array as="points" />
          </mxGeometry>
        </mxCell>
        <mxCell id="IfUtFwwpCATrcM6f2Ggm-94" value="" style="curved=1;startArrow=none;endArrow=block;exitX=0.5;exitY=1;entryX=0.5;entryY=0;rounded=0;fontSize=30;startSize=8;endSize=8;" edge="1" parent="1" source="IfUtFwwpCATrcM6f2Ggm-42" target="IfUtFwwpCATrcM6f2Ggm-43">
          <mxGeometry relative="1" as="geometry">
            <Array as="points" />
          </mxGeometry>
        </mxCell>
        <mxCell id="IfUtFwwpCATrcM6f2Ggm-95" value="" style="curved=1;startArrow=none;endArrow=block;exitX=0.5;exitY=1;entryX=0.5;entryY=0;rounded=0;fontSize=30;startSize=8;endSize=8;" edge="1" parent="1" source="IfUtFwwpCATrcM6f2Ggm-43" target="IfUtFwwpCATrcM6f2Ggm-44">
          <mxGeometry relative="1" as="geometry">
            <Array as="points" />
          </mxGeometry>
        </mxCell>
        <mxCell id="IfUtFwwpCATrcM6f2Ggm-96" value="" style="curved=1;startArrow=none;endArrow=block;exitX=0.5;exitY=1;entryX=0.5;entryY=0;rounded=0;fontSize=30;startSize=8;endSize=8;" edge="1" parent="1" source="IfUtFwwpCATrcM6f2Ggm-44" target="IfUtFwwpCATrcM6f2Ggm-45">
          <mxGeometry relative="1" as="geometry">
            <Array as="points" />
          </mxGeometry>
        </mxCell>
        <mxCell id="IfUtFwwpCATrcM6f2Ggm-97" value="" style="curved=1;startArrow=none;endArrow=block;exitX=0.5;exitY=1;entryX=0.5;entryY=0;rounded=0;fontSize=30;startSize=8;endSize=8;" edge="1" parent="1" source="IfUtFwwpCATrcM6f2Ggm-45" target="IfUtFwwpCATrcM6f2Ggm-46">
          <mxGeometry relative="1" as="geometry">
            <Array as="points" />
          </mxGeometry>
        </mxCell>
        <mxCell id="IfUtFwwpCATrcM6f2Ggm-98" value="" style="curved=1;startArrow=none;endArrow=block;exitX=0.5;exitY=1;entryX=0.5;entryY=0;rounded=0;fontSize=30;startSize=8;endSize=8;" edge="1" parent="1" source="IfUtFwwpCATrcM6f2Ggm-32" target="IfUtFwwpCATrcM6f2Ggm-47">
          <mxGeometry relative="1" as="geometry">
            <Array as="points" />
          </mxGeometry>
        </mxCell>
        <mxCell id="IfUtFwwpCATrcM6f2Ggm-99" value="" style="curved=1;startArrow=none;endArrow=block;exitX=0.5;exitY=1;entryX=0.5;entryY=0;rounded=0;fontSize=30;startSize=8;endSize=8;" edge="1" parent="1" source="IfUtFwwpCATrcM6f2Ggm-46" target="IfUtFwwpCATrcM6f2Ggm-48">
          <mxGeometry relative="1" as="geometry">
            <Array as="points" />
          </mxGeometry>
        </mxCell>
        <mxCell id="IfUtFwwpCATrcM6f2Ggm-100" value="" style="curved=1;startArrow=none;endArrow=block;exitX=0.5;exitY=0.99;entryX=0;entryY=0.07;rounded=0;fontSize=30;startSize=8;endSize=8;" edge="1" parent="1" source="IfUtFwwpCATrcM6f2Ggm-47" target="IfUtFwwpCATrcM6f2Ggm-49">
          <mxGeometry relative="1" as="geometry">
            <Array as="points">
              <mxPoint x="140" y="4617" />
            </Array>
          </mxGeometry>
        </mxCell>
        <mxCell id="IfUtFwwpCATrcM6f2Ggm-101" value="" style="curved=1;startArrow=none;endArrow=block;exitX=0.5;exitY=0.99;entryX=1;entryY=0.07;rounded=0;fontSize=30;startSize=8;endSize=8;" edge="1" parent="1" source="IfUtFwwpCATrcM6f2Ggm-48" target="IfUtFwwpCATrcM6f2Ggm-49">
          <mxGeometry relative="1" as="geometry">
            <Array as="points">
              <mxPoint x="432" y="4617" />
            </Array>
          </mxGeometry>
        </mxCell>
        <mxCell id="IfUtFwwpCATrcM6f2Ggm-102" value="Parent" style="curved=1;startArrow=none;endArrow=block;exitX=0.82;exitY=1;entryX=0.5;entryY=0;rounded=0;fontSize=30;startSize=8;endSize=8;" edge="1" parent="1" source="IfUtFwwpCATrcM6f2Ggm-14" target="IfUtFwwpCATrcM6f2Ggm-50">
          <mxGeometry relative="1" as="geometry">
            <Array as="points">
              <mxPoint x="571" y="1486" />
            </Array>
          </mxGeometry>
        </mxCell>
        <mxCell id="IfUtFwwpCATrcM6f2Ggm-103" value="" style="curved=1;startArrow=none;endArrow=block;exitX=0.5;exitY=1;entryX=0.5;entryY=0;rounded=0;fontSize=30;startSize=8;endSize=8;" edge="1" parent="1" source="IfUtFwwpCATrcM6f2Ggm-50" target="IfUtFwwpCATrcM6f2Ggm-51">
          <mxGeometry relative="1" as="geometry">
            <Array as="points" />
          </mxGeometry>
        </mxCell>
        <mxCell id="IfUtFwwpCATrcM6f2Ggm-104" value="" style="curved=1;startArrow=none;endArrow=block;exitX=0.5;exitY=1;entryX=0.5;entryY=0;rounded=0;fontSize=30;startSize=8;endSize=8;" edge="1" parent="1" source="IfUtFwwpCATrcM6f2Ggm-51" target="IfUtFwwpCATrcM6f2Ggm-52">
          <mxGeometry relative="1" as="geometry">
            <Array as="points" />
          </mxGeometry>
        </mxCell>
        <mxCell id="IfUtFwwpCATrcM6f2Ggm-105" value="Start" style="ellipse;whiteSpace=wrap;html=1;aspect=fixed;fontSize=30;" vertex="1" parent="1">
          <mxGeometry x="388" y="-6" width="80" height="80" as="geometry" />
        </mxCell>
        <mxCell id="IfUtFwwpCATrcM6f2Ggm-106" value="&lt;font&gt;while(1)&lt;/font&gt;" style="rounded=0;whiteSpace=wrap;html=1;fontSize=30;" vertex="1" parent="1">
          <mxGeometry x="-35" y="1185" width="878.5" height="58" as="geometry" />
        </mxCell>
        <mxCell id="IfUtFwwpCATrcM6f2Ggm-112" style="edgeStyle=none;curved=1;rounded=0;orthogonalLoop=1;jettySize=auto;html=1;exitX=0;exitY=1;exitDx=0;exitDy=0;fontSize=30;startSize=8;endSize=8;" edge="1" parent="1" source="IfUtFwwpCATrcM6f2Ggm-111">
          <mxGeometry relative="1" as="geometry">
            <mxPoint x="755.8699515206472" y="410.93504115513406" as="targetPoint" />
          </mxGeometry>
        </mxCell>
        <mxCell id="IfUtFwwpCATrcM6f2Ggm-113" style="edgeStyle=none;curved=1;rounded=0;orthogonalLoop=1;jettySize=auto;html=1;exitX=1;exitY=1;exitDx=0;exitDy=0;fontSize=30;startSize=8;endSize=8;" edge="1" parent="1" source="IfUtFwwpCATrcM6f2Ggm-111">
          <mxGeometry relative="1" as="geometry">
            <mxPoint x="940" y="419" as="targetPoint" />
          </mxGeometry>
        </mxCell>
        <mxCell id="IfUtFwwpCATrcM6f2Ggm-111" value="Is parent &#xa;process" style="rhombus;strokeWidth=2;whiteSpace=wrap;fontSize=30;" vertex="1" parent="1">
          <mxGeometry x="770" y="177.5" width="155" height="155" as="geometry" />
        </mxCell>
        <mxCell id="IfUtFwwpCATrcM6f2Ggm-115" value="No" style="text;html=1;align=center;verticalAlign=middle;resizable=0;points=[];autosize=1;strokeColor=none;fillColor=none;fontSize=30;" vertex="1" parent="1">
          <mxGeometry x="957.5" y="312.5" width="56" height="48" as="geometry" />
        </mxCell>
        <mxCell id="IfUtFwwpCATrcM6f2Ggm-116" value="Semaphore wait for HIT" style="whiteSpace=wrap;strokeWidth=2;fontSize=30;" vertex="1" parent="1">
          <mxGeometry x="613.5" y="511" width="230" height="54" as="geometry" />
        </mxCell>
        <mxCell id="IfUtFwwpCATrcM6f2Ggm-118" value="Write temination log" style="whiteSpace=wrap;strokeWidth=2;fontSize=30;" vertex="1" parent="1">
          <mxGeometry x="644" y="637" width="173" height="54" as="geometry" />
        </mxCell>
        <mxCell id="IfUtFwwpCATrcM6f2Ggm-127" style="edgeStyle=none;curved=1;rounded=0;orthogonalLoop=1;jettySize=auto;html=1;exitX=0.5;exitY=1;exitDx=0;exitDy=0;fontSize=30;startSize=8;endSize=8;" edge="1" parent="1" source="IfUtFwwpCATrcM6f2Ggm-119">
          <mxGeometry relative="1" as="geometry">
            <mxPoint x="728.8571428571431" y="855.0907505580358" as="targetPoint" />
          </mxGeometry>
        </mxCell>
        <mxCell id="IfUtFwwpCATrcM6f2Ggm-119" value="Semaphore post" style="whiteSpace=wrap;strokeWidth=2;fontSize=30;" vertex="1" parent="1">
          <mxGeometry x="643" y="748" width="174" height="54" as="geometry" />
        </mxCell>
        <mxCell id="IfUtFwwpCATrcM6f2Ggm-121" value="" style="curved=1;startArrow=none;endArrow=block;exitX=0.5;exitY=1;entryX=0.5;entryY=0;rounded=0;fontSize=30;startSize=8;endSize=8;" edge="1" parent="1" target="IfUtFwwpCATrcM6f2Ggm-118">
          <mxGeometry relative="1" as="geometry">
            <Array as="points" />
            <mxPoint x="730" y="570.0000000000005" as="sourcePoint" />
          </mxGeometry>
        </mxCell>
        <mxCell id="IfUtFwwpCATrcM6f2Ggm-122" value="" style="curved=1;startArrow=none;endArrow=block;exitX=0.5;exitY=1;entryX=0.5;entryY=0;rounded=0;fontSize=30;startSize=8;endSize=8;" edge="1" parent="1" source="IfUtFwwpCATrcM6f2Ggm-118" target="IfUtFwwpCATrcM6f2Ggm-119">
          <mxGeometry relative="1" as="geometry">
            <Array as="points" />
          </mxGeometry>
        </mxCell>
        <mxCell id="IfUtFwwpCATrcM6f2Ggm-126" style="edgeStyle=none;curved=1;rounded=0;orthogonalLoop=1;jettySize=auto;html=1;exitX=0.5;exitY=1;exitDx=0;exitDy=0;entryX=0.5;entryY=0;entryDx=0;entryDy=0;fontSize=30;startSize=8;endSize=8;" edge="1" parent="1" source="IfUtFwwpCATrcM6f2Ggm-125" target="IfUtFwwpCATrcM6f2Ggm-116">
          <mxGeometry relative="1" as="geometry" />
        </mxCell>
        <mxCell id="IfUtFwwpCATrcM6f2Ggm-125" value="Caculate server end time" style="whiteSpace=wrap;strokeWidth=2;fontSize=30;" vertex="1" parent="1">
          <mxGeometry x="643.5" y="413" width="173" height="54" as="geometry" />
        </mxCell>
        <mxCell id="IfUtFwwpCATrcM6f2Ggm-134" style="edgeStyle=none;curved=1;rounded=0;orthogonalLoop=1;jettySize=auto;html=1;exitX=0.5;exitY=1;exitDx=0;exitDy=0;fontSize=30;startSize=8;endSize=8;" edge="1" parent="1" source="IfUtFwwpCATrcM6f2Ggm-128">
          <mxGeometry relative="1" as="geometry">
            <mxPoint x="734.5714285714284" y="956.389404296875" as="targetPoint" />
          </mxGeometry>
        </mxCell>
        <mxCell id="IfUtFwwpCATrcM6f2Ggm-128" value="Remove semaphore" style="whiteSpace=wrap;strokeWidth=2;fontSize=30;" vertex="1" parent="1">
          <mxGeometry x="648" y="855" width="174" height="54" as="geometry" />
        </mxCell>
        <mxCell id="IfUtFwwpCATrcM6f2Ggm-129" value="End" style="ellipse;whiteSpace=wrap;html=1;aspect=fixed;fontSize=30;" vertex="1" parent="1">
          <mxGeometry x="695" y="1059" width="80" height="80" as="geometry" />
        </mxCell>
        <mxCell id="IfUtFwwpCATrcM6f2Ggm-131" value="Exit child" style="whiteSpace=wrap;strokeWidth=2;fontSize=30;" vertex="1" parent="1">
          <mxGeometry x="871" y="421" width="174" height="54" as="geometry" />
        </mxCell>
        <mxCell id="IfUtFwwpCATrcM6f2Ggm-135" style="edgeStyle=none;curved=1;rounded=0;orthogonalLoop=1;jettySize=auto;html=1;exitX=0.5;exitY=1;exitDx=0;exitDy=0;entryX=0.5;entryY=0;entryDx=0;entryDy=0;fontSize=30;startSize=8;endSize=8;" edge="1" parent="1" source="IfUtFwwpCATrcM6f2Ggm-132" target="IfUtFwwpCATrcM6f2Ggm-129">
          <mxGeometry relative="1" as="geometry" />
        </mxCell>
        <mxCell id="IfUtFwwpCATrcM6f2Ggm-132" value="Exit parent" style="whiteSpace=wrap;strokeWidth=2;fontSize=30;" vertex="1" parent="1">
          <mxGeometry x="648" y="958" width="174" height="54" as="geometry" />
        </mxCell>
        <mxCell id="IfUtFwwpCATrcM6f2Ggm-136" value="SIGINT" style="text;html=1;align=center;verticalAlign=middle;resizable=0;points=[];autosize=1;strokeColor=none;fillColor=none;fontSize=30;" vertex="1" parent="1">
          <mxGeometry x="605" y="211" width="118" height="48" as="geometry" />
        </mxCell>
        <mxCell id="IfUtFwwpCATrcM6f2Ggm-137" value="Yes" style="text;html=1;align=center;verticalAlign=middle;resizable=0;points=[];autosize=1;strokeColor=none;fillColor=none;fontSize=30;" vertex="1" parent="1">
          <mxGeometry x="672" y="312.5" width="67" height="48" as="geometry" />
        </mxCell>
      </root>
    </mxGraphModel>
  </diagram>
</mxfile>
